<?xml version="1.0" standalone="no"?>
<!DOCTYPE svg PUBLIC "-//W3C//DTD SVG 20010904//EN"
 "http://www.w3.org/TR/2001/REC-SVG-20010904/DTD/svg10.dtd">
<svg version="1.0" xmlns="http://www.w3.org/2000/svg"
 width="1024.000000pt" height="1024.000000pt" viewBox="0 0 1024.000000 1024.000000"
 preserveAspectRatio="xMidYMid meet">

<g transform="translate(0.000000,1024.000000) scale(0.100000,-0.100000)"
fill="#000000" stroke="none">
<path d="M4782 10101 c-23 -4 -55 -17 -70 -28 -50 -37 -60 -68 -77 -248 -19
-183 -36 -240 -81 -270 -32 -21 -254 -59 -297 -51 -62 12 -92 51 -168 221 -76
171 -87 189 -133 212 -59 31 -228 -3 -290 -57 -59 -52 -61 -66 -36 -278 30
-261 25 -271 -173 -347 -104 -40 -121 -44 -158 -36 -53 12 -64 23 -186 183
-57 76 -115 145 -128 154 -14 9 -44 19 -68 21 -36 4 -56 -2 -137 -43 -78 -40
-99 -56 -117 -89 -13 -22 -23 -54 -23 -71 0 -17 27 -112 61 -210 57 -168 60
-181 49 -219 -16 -55 -30 -68 -148 -147 -154 -101 -169 -98 -366 72 -72 62
-141 116 -154 121 -40 15 -95 10 -132 -12 -63 -39 -143 -113 -157 -146 -28
-68 -19 -101 69 -244 108 -178 118 -198 118 -235 0 -56 -18 -86 -103 -172
-142 -144 -149 -144 -376 -22 -186 100 -217 107 -283 67 -47 -28 -133 -142
-147 -193 -20 -73 -2 -105 134 -243 67 -70 130 -141 140 -160 28 -55 16 -103
-54 -218 -102 -168 -113 -171 -357 -102 -127 36 -190 49 -217 46 -60 -8 -98
-45 -142 -138 -46 -97 -52 -161 -19 -207 11 -15 87 -72 170 -128 159 -108 194
-144 194 -203 0 -45 -65 -242 -90 -274 -11 -14 -35 -32 -55 -41 -32 -15 -53
-16 -224 -5 -182 11 -191 11 -228 -8 -53 -28 -77 -67 -97 -166 -36 -169 -12
-199 228 -292 93 -35 177 -71 186 -80 9 -9 25 -33 34 -54 16 -35 16 -47 3
-166 -23 -196 -32 -204 -281 -242 -189 -29 -218 -39 -260 -96 -18 -25 -21 -42
-21 -142 0 -100 3 -117 21 -142 42 -57 71 -67 260 -96 249 -38 258 -46 281
-242 13 -119 13 -131 -3 -166 -9 -21 -25 -45 -34 -54 -9 -9 -93 -45 -186 -80
-240 -93 -264 -123 -228 -292 20 -99 44 -138 97 -166 37 -19 46 -19 228 -8
261 17 271 11 333 -177 42 -125 45 -166 14 -212 -13 -19 -88 -77 -172 -134
-83 -56 -159 -113 -170 -128 -33 -46 -27 -110 19 -207 44 -93 82 -130 142
-138 27 -3 90 10 217 46 244 69 255 66 357 -102 70 -115 82 -163 54 -218 -10
-19 -73 -91 -140 -160 -136 -139 -154 -171 -134 -243 14 -52 101 -165 147
-193 66 -40 97 -33 283 67 227 122 234 122 376 -22 85 -86 103 -116 103 -172
0 -37 -10 -57 -118 -235 -88 -143 -97 -176 -69 -244 14 -33 94 -107 157 -146
37 -22 92 -27 132 -12 13 5 82 59 154 121 197 170 212 173 366 72 118 -79 132
-92 148 -147 11 -38 8 -51 -49 -219 -34 -98 -61 -193 -61 -210 0 -17 10 -49
23 -71 18 -33 39 -49 117 -89 81 -41 101 -47 137 -43 24 2 54 12 68 21 13 9
71 78 128 154 122 160 133 171 186 183 37 8 54 4 158 -36 198 -76 203 -86 173
-347 -25 -212 -23 -226 36 -278 62 -54 231 -88 290 -57 46 23 57 41 133 212
76 170 106 209 168 221 43 8 265 -30 297 -51 45 -30 62 -87 81 -270 11 -118
22 -179 34 -200 29 -50 73 -73 157 -80 127 -12 180 3 226 66 10 13 34 102 56
201 21 97 46 188 55 202 30 45 72 59 199 67 204 13 216 4 294 -240 78 -245
104 -267 280 -240 91 13 132 33 168 82 19 26 21 45 26 236 7 273 3 267 202
321 101 26 123 29 157 20 54 -14 76 -41 180 -216 98 -164 119 -184 198 -184
60 0 181 49 225 92 55 55 55 77 8 287 -27 118 -39 193 -35 212 11 49 52 86
159 144 88 47 111 55 157 55 l54 0 145 -149 c93 -96 155 -152 173 -157 58 -14
111 1 189 54 85 57 109 88 116 148 4 37 -6 64 -77 216 -44 96 -81 186 -81 200
0 57 22 89 122 173 102 87 138 103 198 92 15 -4 97 -53 182 -110 84 -57 166
-107 181 -111 53 -13 108 12 169 74 78 80 98 115 98 172 0 45 -6 56 -96 175
-53 71 -107 140 -120 155 -30 37 -39 96 -21 140 8 19 45 74 82 122 116 150
123 152 361 56 149 -60 186 -71 220 -67 61 6 98 38 149 125 88 150 77 184
-103 334 -170 142 -174 147 -180 210 -3 48 2 65 51 170 50 105 59 119 96 137
51 27 62 26 264 -8 249 -43 278 -29 337 167 42 139 17 174 -213 292 -86 45
-164 92 -172 103 -35 49 -36 88 -9 208 41 186 61 203 232 213 296 17 281 15
323 53 44 40 55 70 64 175 14 158 -11 183 -250 248 -98 26 -189 57 -204 67
-49 36 -61 76 -61 206 0 199 9 208 259 276 199 54 229 70 252 139 12 37 5 164
-12 219 -6 17 -27 47 -48 66 -43 38 -36 37 -316 52 -123 7 -169 23 -197 71 -9
16 -28 80 -42 143 -27 120 -26 159 9 208 8 11 86 58 172 103 230 118 255 153
213 292 -28 93 -54 144 -84 163 -51 34 -79 34 -253 4 -202 -34 -213 -35 -264
-8 -37 18 -46 32 -96 137 -49 105 -54 122 -51 170 6 63 10 68 180 210 180 150
191 184 103 334 -51 87 -88 119 -149 125 -34 4 -71 -7 -220 -67 -238 -96 -245
-94 -361 56 -37 48 -74 103 -82 122 -18 44 -9 103 21 140 13 15 67 84 120 155
90 119 96 130 96 175 0 57 -20 92 -98 172 -61 62 -116 87 -169 74 -15 -4 -97
-54 -181 -111 -85 -57 -167 -106 -182 -110 -60 -11 -96 5 -198 92 -100 84
-122 116 -122 173 0 14 37 104 81 200 71 152 81 179 77 216 -7 60 -31 91 -116
148 -78 53 -131 68 -189 54 -18 -5 -80 -61 -173 -157 l-145 -149 -54 0 c-46 0
-69 8 -157 55 -107 58 -148 95 -159 144 -4 19 8 94 35 212 47 210 47 232 -8
287 -44 43 -165 92 -225 92 -79 0 -100 -20 -198 -184 -104 -175 -126 -202
-180 -216 -34 -9 -56 -6 -157 20 -199 54 -195 48 -202 321 -5 191 -7 210 -26
236 -36 49 -77 69 -168 82 -106 16 -146 9 -190 -32 -29 -28 -42 -57 -90 -208
-78 -244 -90 -253 -294 -240 -127 8 -169 22 -199 67 -9 14 -34 105 -55 202
-22 99 -46 188 -56 201 -38 52 -69 66 -150 68 -42 1 -96 -2 -120 -6z m-357
-1513 c96 -50 170 -151 194 -266 7 -35 11 -239 11 -603 0 -605 1 -591 -62
-656 -19 -19 -60 -44 -102 -59 -254 -96 -427 -195 -620 -353 -106 -86 -170
-108 -243 -80 -15 5 -241 133 -502 282 -515 296 -553 323 -607 432 -25 53 -29
71 -29 150 0 151 39 208 295 428 377 326 838 578 1320 723 101 30 126 34 205
31 73 -3 99 -8 140 -29z m1765 -9 c329 -99 674 -263 969 -461 264 -178 543
-424 597 -528 26 -50 29 -64 29 -155 0 -95 -2 -103 -34 -163 -19 -35 -55 -82
-81 -105 -44 -39 -931 -558 -1012 -592 -78 -32 -139 -14 -244 72 -174 143
-414 280 -609 348 -98 35 -156 87 -173 158 -15 59 -16 1053 -2 1147 15 91 60
179 121 234 110 99 223 110 439 45z m-811 -2164 c263 -52 491 -174 682 -365
260 -259 389 -569 389 -935 0 -366 -129 -676 -389 -935 -194 -193 -420 -313
-691 -367 -119 -24 -376 -24 -489 0 -342 73 -617 243 -814 505 -176 234 -267
506 -267 797 0 664 491 1223 1155 1314 92 13 330 5 424 -14z m-3302 -131 c26
-9 268 -142 536 -297 538 -309 535 -306 545 -407 2 -27 -4 -100 -14 -162 -25
-156 -25 -450 0 -606 10 -62 16 -135 14 -162 -10 -101 -7 -98 -545 -408 -268
-154 -512 -288 -541 -297 -74 -24 -210 -17 -272 14 -60 31 -126 96 -156 153
-44 86 -96 325 -130 593 -25 195 -25 624 0 820 33 263 95 541 134 604 44 72
128 139 202 162 45 14 177 10 227 -7z m6381 -17 c69 -36 128 -96 158 -161 25
-55 72 -249 97 -406 35 -211 42 -310 42 -585 0 -275 -7 -374 -42 -585 -25
-157 -72 -351 -97 -406 -30 -65 -89 -125 -158 -160 -71 -37 -199 -45 -279 -19
-66 22 -1005 560 -1037 595 -55 58 -62 115 -35 262 24 131 24 495 0 626 -26
143 -20 196 30 259 22 27 958 568 1028 594 78 29 222 22 293 -14z m-4727
-2611 c19 -7 71 -42 115 -77 193 -158 354 -250 609 -348 51 -19 93 -43 112
-63 64 -67 63 -52 63 -657 0 -364 -4 -568 -11 -603 -15 -73 -53 -145 -102
-196 -102 -106 -225 -127 -418 -72 -473 135 -957 397 -1339 727 -168 144 -234
214 -266 279 -25 52 -29 70 -29 149 0 79 4 97 29 150 54 109 92 136 607 432
261 150 485 276 499 282 35 14 88 13 131 -3z m2927 -1 c81 -34 968 -553 1012
-592 26 -23 62 -70 81 -105 32 -60 34 -68 34 -163 0 -91 -3 -105 -29 -155 -71
-136 -456 -453 -790 -649 -329 -194 -812 -381 -983 -381 -183 0 -322 126 -353
320 -14 92 -13 1088 1 1146 20 80 66 116 224 179 214 85 371 177 550 322 116
93 173 111 253 78z"/>
</g>
</svg>
